<?xml version="1.0" encoding="UTF-8"?>
<svg width="34px" height="27px" viewBox="0 0 34 27" version="1.1" xmlns="http://www.w3.org/2000/svg" xmlns:xlink="http://www.w3.org/1999/xlink">
    <title>9D03CC60-A372-4FE6-9DBB-7A79A39C2919</title>
    <g id="1.0-Experiences" stroke="none" stroke-width="1" fill="none" fill-rule="evenodd">
        <g id="1.3-Book-experience---booking" transform="translate(-1200.000000, -707.000000)" fill-rule="nonzero">
            <g id="Group-6" transform="translate(1074.000000, 171.000000)">
                <g id="Group-5" transform="translate(1.000000, 449.000000)">
                    <g id="Group-3" transform="translate(60.000000, 87.000000)">
                        <g id="mastercard-2" transform="translate(65.000000, -0.000000)">
                            <path d="M32.9214513,25.7737758 L32.9214513,25.8726962 L32.984084,25.8726962 C32.9958414,25.8729738 33.0074357,25.8686195 33.0176672,25.8600839 C33.0259575,25.8514421 33.0307008,25.8371913 33.0302609,25.8222468 C33.0306913,25.8075771 33.025924,25.7936286 33.0176672,25.785399 C33.0075524,25.776444 32.9958753,25.7720586 32.984084,25.7727866 L32.9214513,25.7727866 L32.9214513,25.7737758 Z M32.9847556,25.725913 C33.0116018,25.7242636 33.0381887,25.7319786 33.059982,25.7477421 C33.0776994,25.762254 33.0874816,25.7843107 33.0863448,25.8071844 C33.0871523,25.8268281 33.07944,25.8458641 33.0651874,25.8594063 C33.0483781,25.8740207 33.027288,25.8827985 33.0050735,25.8844258 L33.0890315,25.9801379 L33.0243838,25.9801379 L32.9471424,25.8850975 L32.9221229,25.8850975 L32.9221229,25.9801379 L32.868054,25.9801379 L32.868054,25.726081 L32.9855952,25.726081 L32.9847556,25.725913 Z M32.967964,26.0677901 C32.9963217,26.068057 33.0244164,26.0623351 33.0504108,26.0509985 C33.0754735,26.0402099 33.0982645,26.024769 33.1175772,26.0054933 C33.1369266,25.9862414 33.1523777,25.9634354 33.1630825,25.9383268 C33.1851176,25.8851051 33.1851176,25.8253116 33.1630825,25.77209 C33.15222,25.7470677 33.136788,25.7242898 33.1175772,25.7049235 C33.0982567,25.6856572 33.0754677,25.6702176 33.0504108,25.6594183 C33.0242599,25.6486987 32.9962251,25.6433315 32.967964,25.6436342 C32.9392162,25.6433671 32.910694,25.6487292 32.884006,25.6594183 C32.8583873,25.670005 32.8350644,25.6854586 32.8153283,25.7049235 C32.754606,25.7672098 32.7369585,25.8597433 32.7704948,25.940006 C32.7807207,25.9652083 32.7959756,25.9880622 32.8153283,26.0071724 C32.8350751,26.0266241 32.8583953,26.0420759 32.884006,26.0526777 C32.9105338,26.0640073 32.9391193,26.0697244 32.967964,26.0694693 M32.967964,25.5825127 C33.0417615,25.582438 33.1126284,25.6113878 33.1652654,25.6631124 C33.1906439,25.6879483 33.2108474,25.7175687 33.2247076,25.7502609 C33.2537084,25.8180959 33.2537084,25.8948397 33.2247076,25.9626747 C33.2105215,25.9951879 33.1903583,26.0247492 33.1652654,26.0498231 C33.1395027,26.0745259 33.1095348,26.0944286 33.0767736,26.1085937 C33.0423707,26.1232103 33.0053426,26.1306388 32.967964,26.1304228 C32.9301457,26.1306945 32.8926677,26.1232674 32.8578111,26.1085937 C32.8246727,26.0947584 32.7944273,26.0748227 32.7686477,26.0498231 C32.7435561,26.023831 32.7236649,25.9932817 32.710045,25.9598201 C32.6810442,25.8919851 32.6810442,25.8152413 32.710045,25.7474063 C32.7239053,25.7147141 32.7441087,25.6850937 32.7694873,25.6602579 C32.7949178,25.6348267 32.8252533,25.6148315 32.8586507,25.6014873 C32.8935072,25.5868135 32.9309853,25.5793865 32.9688036,25.579651 M7.25665967,24.6013793 C7.25665967,24.1169415 7.57402099,23.7189805 8.09271364,23.7189805 C8.5884018,23.7189805 8.92289055,24.0998141 8.92289055,24.6013793 C8.92289055,25.1029445 8.5884018,25.4837781 8.09271364,25.4837781 C7.57402099,25.4837781 7.25665967,25.0858171 7.25665967,24.6013793 M9.48792804,24.6013793 L9.48792804,23.2227886 L8.88863568,23.2227886 L8.88863568,23.5586207 C8.69855472,23.3104408 8.41024288,23.1547826 8.01815892,23.1547826 C7.24574513,23.1547826 6.63956822,23.7606237 6.63956822,24.602051 C6.63956822,25.4434783 7.2454093,26.0493193 8.01815892,26.0493193 C8.41007496,26.0493193 8.69855472,25.8934933 8.88863568,25.6454813 L8.88863568,25.9801379 L9.48725637,25.9801379 L9.48725637,24.6013793 L9.48792804,24.6013793 Z M29.7372594,24.6013793 C29.7372594,24.1169415 30.0546207,23.7189805 30.5734813,23.7189805 C31.0696732,23.7189805 31.4036582,24.0998141 31.4036582,24.6013793 C31.4036582,25.1029445 31.0696732,25.4837781 30.5734813,25.4837781 C30.0547886,25.4837781 29.7372594,25.0858171 29.7372594,24.6013793 M31.9691994,24.6013793 L31.9691994,22.1162219 L31.3694033,22.1162219 L31.3694033,23.5586207 C31.1793223,23.3104408 30.8910105,23.1547826 30.4989265,23.1547826 C29.7265127,23.1547826 29.1203358,23.7606237 29.1203358,24.602051 C29.1203358,25.4434783 29.7261769,26.0493193 30.4989265,26.0493193 C30.8910105,26.0493193 31.1793223,25.8934933 31.3694033,25.6454813 L31.3694033,25.9801379 L31.9691994,25.9801379 L31.9691994,24.6013793 Z M16.925937,23.6906027 C17.3121439,23.6906027 17.5601559,23.9327376 17.6234603,24.3590765 L16.1934873,24.3590765 C16.2574633,23.9611154 16.4990945,23.6906027 16.9261049,23.6906027 M16.938027,23.1532714 C16.1303508,23.1532714 15.5653133,23.7409775 15.5653133,24.6005397 C15.5653133,25.4768936 16.1530195,26.0478081 16.9781589,26.0478081 C17.3932474,26.0478081 17.7734093,25.9442039 18.1078981,25.6616012 L17.8142129,25.2174633 C17.5831604,25.4021709 17.2889715,25.5057751 17.0124138,25.5057751 C16.6262069,25.5057751 16.2745907,25.3269445 16.1881139,24.8307526 L18.2345067,24.8307526 C18.2403838,24.7561979 18.2464288,24.6809715 18.2464288,24.6003718 C18.2403838,23.7411454 17.7090975,23.1531034 16.9376912,23.1531034 M24.1731934,24.6003718 C24.1731934,24.115934 24.4905547,23.717973 25.0092474,23.717973 C25.5049355,23.717973 25.8394243,24.0988066 25.8394243,24.6003718 C25.8394243,25.101937 25.5049355,25.4827706 25.0092474,25.4827706 C24.4905547,25.4827706 24.1730255,25.0848096 24.1730255,24.6003718 M26.4042939,24.6003718 L26.4042939,23.2227886 L25.8053373,23.2227886 L25.8053373,23.5586207 C25.6145847,23.3104408 25.3269445,23.1547826 24.9348606,23.1547826 C24.1624468,23.1547826 23.5562699,23.7606237 23.5562699,24.602051 C23.5562699,25.4434783 24.1621109,26.0493193 24.9348606,26.0493193 C25.3269445,26.0493193 25.6145847,25.8934933 25.8053373,25.6454813 L25.8053373,25.9801379 L26.4044618,25.9801379 L26.4044618,24.6013793 L26.4042939,24.6003718 Z M20.7888456,24.6003718 C20.7888456,25.4364258 21.3708426,26.0476402 22.2591184,26.0476402 C22.6742069,26.0476402 22.9507646,25.9552864 23.2498231,25.7190285 L22.962015,25.2345907 C22.7370075,25.3962939 22.5007496,25.4827706 22.239976,25.4827706 C21.7615832,25.4768936 21.4097991,25.1309865 21.4097991,24.6003718 C21.4097991,24.0697571 21.7615832,23.724018 22.239976,23.717973 C22.500078,23.717973 22.7363358,23.8044498 22.962015,23.9661529 L23.2498231,23.4817151 C22.9502609,23.2454573 22.6737031,23.1531034 22.2591184,23.1531034 C21.3708426,23.1531034 20.7888456,23.7641499 20.7888456,24.6003718 M28.5146627,23.1531034 C28.1689235,23.1531034 27.9437481,23.3148066 27.78809,23.5569415 L27.78809,23.2227886 L27.1941709,23.2227886 L27.1941709,25.9786267 L27.7941349,25.9786267 L27.7941349,24.4337991 C27.7941349,23.9777391 27.990093,23.7243538 28.3818411,23.7243538 C28.5101237,23.7225022 28.6375032,23.746072 28.7566297,23.7937031 L28.9413373,23.2288336 C28.8086837,23.1766117 28.6357301,23.1536072 28.5143268,23.1536072 M12.4508066,23.441919 C12.1624948,23.2518381 11.7652054,23.1536072 11.3269445,23.1536072 C10.6287496,23.1536072 10.1792384,23.4882639 10.1792384,24.0358381 C10.1792384,24.4851814 10.5138951,24.7624108 11.1301469,24.8488876 L11.4132534,24.8891874 C11.7418651,24.9353643 11.8970195,25.0218411 11.8970195,25.1774993 C11.8970195,25.3905847 11.6787286,25.5121559 11.2688456,25.5121559 C10.8537571,25.5121559 10.5541949,25.3795022 10.3521919,25.2238441 L10.0705967,25.6911544 C10.3992084,25.9332894 10.8142969,26.0488156 11.2638081,26.0488156 C12.0597301,26.0488156 12.5209955,25.674027 12.5209955,25.1492894 C12.5209955,24.6648516 12.157961,24.4114663 11.5581649,24.3249895 L11.2757301,24.284018 C11.0162999,24.2504348 10.8084198,24.1982129 10.8084198,24.0135052 C10.8084198,23.812006 11.0043778,23.6907706 11.3331574,23.6907706 C11.6849415,23.6907706 12.0254753,23.8234243 12.1923838,23.9270285 L12.4518141,23.4425907 L12.4508066,23.441919 Z M20.1835082,23.1541109 C19.8377691,23.1541109 19.6125937,23.3158141 19.4576072,23.557949 L19.4576072,23.2227886 L18.8636882,23.2227886 L18.8636882,25.9786267 L19.4629805,25.9786267 L19.4629805,24.4337991 C19.4629805,23.9777391 19.6589385,23.7243538 20.0506867,23.7243538 C20.1789693,23.7225022 20.3063487,23.746072 20.4254753,23.7937031 L20.6101829,23.2288336 C20.4775292,23.1766117 20.3045757,23.1536072 20.1831724,23.1536072 M15.0694573,23.2227886 L14.0894993,23.2227886 L14.0894993,22.3867346 L13.4836582,22.3867346 L13.4836582,23.2227886 L12.9246657,23.2227886 L12.9246657,23.7705307 L13.4836582,23.7705307 L13.4836582,25.0277181 C13.4836582,25.6671424 13.7318381,26.047976 14.4407796,26.047976 C14.7008816,26.047976 15.0004438,25.9673763 15.1905247,25.8348906 L15.0174033,25.3217391 C14.8385727,25.4253433 14.6426147,25.4775652 14.4867886,25.4775652 C14.1872264,25.4775652 14.0894993,25.2928576 14.0894993,25.0162999 L14.0894993,23.7710345 L15.0694573,23.7710345 L15.0694573,23.2227886 Z M6.10962519,25.9792984 L6.10962519,24.2497631 C6.10962519,23.5984168 5.69453673,23.1601559 5.0253913,23.1542789 C4.6736072,23.1484018 4.31074063,23.2578831 4.05668366,23.6445937 C3.8666027,23.3389865 3.56704048,23.1542789 3.14590705,23.1542789 C2.85155022,23.1542789 2.56391004,23.2407556 2.33873463,23.5634903 L2.33873463,23.2227886 L1.73893853,23.2227886 L1.73893853,25.9786267 L2.34343628,25.9786267 L2.34343628,24.4505907 C2.34343628,23.9721979 2.60874363,23.717973 3.01845877,23.717973 C3.41641979,23.717973 3.61775112,23.9774033 3.61775112,24.4445457 L3.61775112,25.9782909 L4.2235922,25.9782909 L4.2235922,24.4502549 C4.2235922,23.9718621 4.50014993,23.7176372 4.89794303,23.7176372 C5.30715442,23.7176372 5.50244078,23.9770675 5.50244078,24.4442099 L5.50244078,25.977955 L6.10962519,25.9792984 Z" id="Shape" fill="#231F20"></path>
                            <path d="M33.2631604,16.81209 L33.2631604,16.4090915 L33.1582129,16.4090915 L33.0368096,16.6856492 L32.916078,16.4090915 L32.8107946,16.4090915 L32.8107946,16.81209 L32.8853493,16.81209 L32.8853493,16.5084978 L32.9988606,16.7704468 L33.0761019,16.7704468 L33.1896132,16.5078261 L33.1896132,16.81209 L33.2634963,16.81209 L33.2631604,16.81209 Z M32.5973733,16.81209 L32.5973733,16.4781049 L32.7317061,16.4781049 L32.7317061,16.410099 L32.3884858,16.410099 L32.3884858,16.4781049 L32.5228186,16.4781049 L32.5228186,16.81209 L32.5967016,16.81209 L32.5973733,16.81209 Z" id="Shape" fill="#F79410"></path>
                            <polygon id="Path" fill="#FF5F00" points="21.3349085 18.5404498 12.2530015 18.5404498 12.2530015 2.21901049 21.3350765 2.21901049"></polygon>
                            <path d="M12.8287856,10.380066 C12.8287856,7.06926537 14.3789865,4.11998801 16.7931154,2.21934633 C14.9657033,0.778537874 12.7056817,-0.0034382391 10.3787226,-1.12897846e-05 C4.64657271,-1.12897846e-05 0,4.64724438 0,10.380066 C0,16.1128876 4.64657271,20.7601435 10.3787226,20.7601435 C12.7057393,20.763608 14.9658261,19.9816298 16.7931154,18.5407856 C14.3793223,16.6404798 12.8287856,13.6910345 12.8287856,10.380066" id="Path" fill="#EB001B"></path>
                            <path d="M33.5874063,10.380066 C33.5874063,16.1128876 28.9408336,20.7601431 23.2086837,20.7601431 C20.8814211,20.7635473 18.621088,19.9815863 16.7934513,18.5407856 C19.208084,16.6401439 20.7582849,13.6910345 20.7582849,10.380066 C20.7582849,7.06909745 19.208084,4.11998801 16.7934513,2.21934633 C18.6210428,0.778581404 20.8813108,-0.00337757949 23.2085157,-1.08959918e-05 C28.9406657,-1.08959918e-05 33.5874063,4.64724438 33.5874063,10.380066" id="Path" fill="#F79E1B"></path>
                        </g>
                    </g>
                </g>
            </g>
        </g>
    </g>
</svg>