<?xml version="1.0" encoding="UTF-8"?>
<svg width="27px" height="27px" viewBox="0 0 27 27" version="1.1" xmlns="http://www.w3.org/2000/svg" xmlns:xlink="http://www.w3.org/1999/xlink">
    <title>CFAA2ABD-D97F-4E43-8149-7CADB1BC2B6B</title>
    <g id="1.0-Experiences" stroke="none" stroke-width="1" fill="none" fill-rule="evenodd">
        <g id="1.3.1-Book-experience---voucher" transform="translate(-1253.000000, -661.000000)" fill-rule="nonzero">
            <g id="Group-5" transform="translate(1074.000000, 574.000000)">
                <g id="Group-3" transform="translate(60.000000, 87.000000)">
                    <g id="american-express-1" transform="translate(119.000000, -0.000000)">
                        <polygon id="Path" fill="#FFFFFF" points="0 0 27 0 27 27 0 27"></polygon>
                        <path d="M1.18838324,24.8909139 L1.11120276,24.8909139 C1.11120276,24.8523937 1.09187263,24.7944033 1.09187263,24.7749331 C1.09187263,24.755743 1.09187263,24.7172228 1.03388221,24.7172228 L0.917901388,24.7172228 L0.917901388,24.8909139 L0.859910976,24.8909139 L0.859910976,24.4852612 L1.03388221,24.4852612 C1.11120276,24.4852612 1.1690531,24.5047314 1.1690531,24.5817718 C1.1690531,24.6397622 1.14972297,24.6592324 1.1305329,24.6782824 C1.14986304,24.6977526 1.1690531,24.7170827 1.1690531,24.755743 L1.1690531,24.8329235 C1.1690531,24.8523937 1.1690531,24.8523937 1.18838324,24.8523937 L1.18838324,24.8909139 Z M1.11120276,24.601242 C1.11120276,24.5432516 1.07254249,24.5432516 1.05321235,24.5432516 L0.917901388,24.5432516 L0.917901388,24.6592324 L1.03388221,24.6592324 C1.07254249,24.6592324 1.11120276,24.6397622 1.11120276,24.601242 Z M1.43967503,24.6784225 C1.43967503,24.446741 1.24651373,24.2532995 0.995221939,24.2532995 C0.763400361,24.2532995 0.570098985,24.446741 0.570098985,24.6784225 C0.570098985,24.9295742 0.763400361,25.1230156 0.995221939,25.1230156 C1.24637365,25.1228756 1.43967503,24.9295742 1.43967503,24.6784225 Z M1.38168462,24.6784225 C1.38168462,24.891054 1.20785345,25.045555 0.995221939,25.045555 C0.782590425,25.045555 0.628089398,24.8909139 0.628089398,24.6784225 C0.628089398,24.4852612 0.782730499,24.3112899 0.995221939,24.3112899 C1.20771338,24.3112899 1.38168462,24.4852612 1.38168462,24.6784225 Z M25.1877296,16.8719884 C25.1877296,17.4517525 24.820597,17.7219542 24.1635124,17.7219542 L22.9077538,17.7219542 L22.9077538,17.1421901 L24.1635124,17.1421901 C24.2794932,17.1421901 24.3761439,17.1230001 24.4149443,17.0844799 C24.4534645,17.0456795 24.4921248,16.9876891 24.4921248,16.9105086 C24.4921248,16.833048 24.4536046,16.7558675 24.4149443,16.7173473 C24.3761439,16.678547 24.2989635,16.6593569 24.1829826,16.6593569 C23.5841686,16.6398867 22.8304333,16.678547 22.8304333,15.8284411 C22.8304333,15.4418384 23.081585,15.0167154 23.7578597,15.0167154 L25.0524186,15.0167154 L25.0524186,15.5964795 L23.8543703,15.5964795 C23.7386696,15.5964795 23.661209,15.5964795 23.6032186,15.6349997 C23.5452282,15.6929901 23.506708,15.7509805 23.506708,15.8476312 C23.506708,15.9442819 23.5646984,16.0022723 23.6418789,16.0410727 C23.7193395,16.0602627 23.79666,16.0795929 23.8933107,16.0795929 L24.240973,16.0795929 C24.6081056,16.0795929 24.8400672,16.1567733 24.9947083,16.2922244 C25.110409,16.4273953 25.1877296,16.6015066 25.1877296,16.8719884 L25.1877296,16.8719884 Z M22.4631607,16.2922244 C22.3085196,16.1567733 22.0765579,16.0795929 21.7094254,16.0795929 L21.3617631,16.0795929 C21.2652524,16.0795929 21.1877918,16.0601226 21.1106113,16.0410727 C21.0331507,16.0022723 20.9754405,15.9442819 20.9754405,15.8476312 C20.9754405,15.7509805 20.9946305,15.6929901 21.0719511,15.6349997 C21.1299415,15.5964795 21.207122,15.5964795 21.3231028,15.5964795 L22.5211511,15.5964795 L22.5211511,15.0167154 L21.2265922,15.0167154 C20.5308473,15.0167154 20.2988856,15.4418384 20.2988856,15.8284411 C20.2988856,16.6784069 21.0526209,16.6398867 21.6517151,16.6593569 C21.7674158,16.6593569 21.8448764,16.678547 21.8833966,16.7173473 C21.9219168,16.7558675 21.9608572,16.833048 21.9608572,16.9105086 C21.9608572,16.9876891 21.9220569,17.0456795 21.8833966,17.0844799 C21.8254062,17.1230001 21.7482257,17.1421901 21.6322449,17.1421901 L20.3762062,17.1421901 L20.3762062,17.7219542 L21.6322449,17.7219542 C22.2890494,17.7219542 22.656322,17.4516124 22.656322,16.8719884 C22.656322,16.6015066 22.5791415,16.4273953 22.4631607,16.2922244 L22.4631607,16.2922244 Z M19.9897435,17.1618004 L18.4635031,17.1618004 L18.4635031,16.6206966 L19.9512233,16.6206966 L19.9512233,16.079873 L18.4635031,16.079873 L18.4635031,15.5772894 L19.9897435,15.5772894 L19.9897435,15.0169956 L17.8257486,15.0169956 L17.8257486,17.7220943 L19.9897435,17.7220943 L19.9897435,17.1618004 Z M17.1300037,15.1523065 C16.9173722,15.0363257 16.6662205,15.0168555 16.3377482,15.0168555 L14.850028,15.0168555 L14.850028,17.7219542 L15.5068325,17.7219542 L15.5068325,16.7365374 L16.2025774,16.7365374 C16.4342589,16.7365374 16.5697099,16.7560076 16.6663606,16.8525182 C16.7823414,16.9876891 16.7823414,17.2196508 16.7823414,17.393622 L16.7823414,17.7219542 L17.4198157,17.7219542 L17.4198157,17.2001805 C17.4198157,16.9490288 17.4006257,16.833048 17.3233051,16.6978771 C17.2653147,16.6204165 17.149614,16.5239059 16.9949729,16.4659155 C17.168664,16.4082052 17.4587561,16.1762435 17.4587561,15.7509805 C17.4586161,15.4419785 17.3426352,15.2680072 17.1300037,15.1523065 Z M13.4586783,15.0168555 L11.391054,15.0168555 L10.5601382,15.9057617 L9.76788271,15.0168555 L7.15929465,15.0168555 L7.15929465,17.7219542 L9.72936251,17.7219542 L10.5602783,16.833048 L11.3525338,17.7219542 L12.6085725,17.7219542 L12.6085725,16.813998 L13.4201581,16.813998 C13.980452,16.813998 14.541026,16.6593569 14.541026,15.9057617 C14.5408859,15.1714966 13.9611218,15.0168555 13.4586783,15.0168555 Z M16.6082301,16.1377233 C16.5117195,16.1762435 16.4150688,16.1762435 16.299088,16.1762435 L15.5068325,16.1957138 L15.5068325,15.5771493 L16.299088,15.5771493 C16.4150688,15.5771493 16.5310496,15.5771493 16.6082301,15.6351398 C16.6856907,15.6739401 16.743401,15.7511206 16.743401,15.8671014 C16.743401,15.9830822 16.6856907,16.0797329 16.6082301,16.1377233 L16.6082301,16.1377233 Z M13.4586783,16.2728942 L12.6084324,16.2728942 L12.6084324,15.5771493 L13.4586783,15.5771493 C13.69064,15.5771493 13.845141,15.6739401 13.845141,15.9057617 C13.845141,16.1377233 13.6904999,16.2728942 13.4586783,16.2728942 Z M10.965931,16.3694048 L11.970678,15.3068076 L11.970678,17.4902727 L10.965931,16.3694048 Z M9.40075017,17.1618004 L7.79690905,17.1618004 L7.79690905,16.6206966 L9.22677893,16.6206966 L9.22677893,16.079873 L7.79690905,16.079873 L7.79690905,15.5772894 L9.42008031,15.5772894 L10.1350153,16.3695449 L9.40075017,17.1618004 L9.40075017,17.1618004 Z M23.3905871,13.065212 L22.4631607,13.065212 L21.2457822,11.0362479 L21.2457822,13.065212 L19.9320332,13.065212 L19.6806014,12.4661178 L18.328052,12.4661178 L18.0769003,13.065212 L17.323165,13.065212 C17.0140229,13.065212 16.6082301,12.9878914 16.3765486,12.7559298 C16.1639171,12.5241082 16.0479363,12.2149661 16.0479363,11.7318527 C16.0479363,11.3260599 16.1059267,10.9589273 16.3955986,10.6691154 C16.5887599,10.4564838 16.9367024,10.3599732 17.3810154,10.3599732 L17.9992996,10.3599732 L17.9992996,10.9397373 L17.3810154,10.9397373 C17.1493339,10.9397373 17.0138828,10.9783976 16.8787119,11.0943784 C16.7627311,11.2103592 16.7047407,11.4228507 16.7047407,11.7126626 C16.7047407,12.0024746 16.7627311,12.2151061 16.8787119,12.3504171 C16.9752226,12.4469277 17.1493339,12.485588 17.323025,12.485588 L17.612977,12.485588 L18.5404034,10.3601133 L19.5066301,10.3601133 L20.5886976,12.910711 L20.5886976,10.3599732 L21.5935846,10.3599732 L22.7336425,12.2342962 L22.7336425,10.3599732 L23.390447,10.3599732 L23.390447,13.065212 L23.3905871,13.065212 L23.3905871,13.065212 Z M15.719464,10.3599732 L15.0626595,10.3599732 L15.0626595,13.065212 L15.719464,13.065212 L15.719464,10.3599732 L15.719464,10.3599732 Z M14.3474444,10.4759541 C14.1348129,10.3599732 13.9031314,10.3599732 13.5746592,10.3599732 L12.0866588,10.3599732 L12.0866588,13.065212 L12.7242732,13.065212 L12.7242732,12.0796551 L13.419878,12.0796551 C13.6518396,12.0796551 13.8064807,12.0989852 13.9029913,12.1956359 C14.0189722,12.3309469 13.999502,12.5629085 13.999502,12.7174096 L13.999502,13.065212 L14.6563064,13.065212 L14.6563064,12.5241082 C14.6563064,12.2922866 14.6371164,12.1763058 14.5406057,12.0409948 C14.4826153,11.9636743 14.3666345,11.8670236 14.2314636,11.8091733 C14.4051547,11.7318527 14.6952469,11.5193613 14.6952469,11.0942383 C14.6953869,10.7850962 14.5599359,10.6111249 14.3474444,10.4759541 Z M11.6228756,12.5049181 L10.1156851,12.5049181 L10.1156851,11.9638144 L11.6035454,11.9638144 L11.6035454,11.4035205 L10.1156851,11.4035205 L10.1156851,10.9204071 L11.6228756,10.9204071 L11.6228756,10.3601133 L9.45874058,10.3601133 L9.45874058,13.0653521 L11.6228756,13.0653521 L11.6228756,12.5049181 Z M8.97562722,10.3599732 L7.91288987,10.3599732 L7.12063438,12.1956359 L6.27038847,10.3599732 L5.22698126,10.3599732 L5.22698126,12.9105709 L4.12558364,10.3599732 L3.15949698,10.3599732 L2.00010895,13.065212 L2.69571375,13.065212 L2.94686547,12.4661178 L4.2994148,12.4661178 L4.55056652,13.065212 L5.86459565,13.065212 L5.86459565,10.9397373 L6.81135218,13.065212 L7.37164602,13.065212 L8.31854261,10.9397373 L8.31854261,13.065212 L8.97548714,13.065212 L8.97548714,10.3599732 L8.97562722,10.3599732 Z M19.4489199,11.8864938 L19.0043267,10.8237565 L18.5600137,11.8864938 L19.4489199,11.8864938 Z M13.845141,11.4615109 C13.7486304,11.5195013 13.6519797,11.5195013 13.5166687,11.5195013 L12.7242732,11.5195013 L12.7242732,10.9205472 L13.5165287,10.9205472 C13.6325095,10.9205472 13.7675403,10.9205472 13.8450009,10.9592075 C13.9221814,11.0171979 13.9609818,11.0945185 13.9609818,11.2103592 C13.9609818,11.3262 13.9223215,11.4227106 13.845141,11.4615109 L13.845141,11.4615109 Z M3.17868704,11.8864938 L3.62314014,10.8237565 L4.06759323,11.8864938 L3.17868704,11.8864938 L3.17868704,11.8864938 Z M25.0332285,1.87712445 L1.98063873,1.87712445 L1.98063873,11.616012 L2.77289423,9.81900952 L4.45391583,9.81900952 L4.68587748,10.2634626 L4.68587748,9.81900952 L6.65685115,9.81900952 L7.10130424,10.7850962 L7.52642719,9.81900952 L13.8064807,9.81900952 C14.0961526,9.81900952 14.3473044,9.87699994 14.5407458,10.031501 L14.5407458,9.81900952 L16.2604277,9.81900952 L16.2604277,10.031501 C16.5500996,9.87685986 16.9172321,9.81900952 17.3424952,9.81900952 L19.8351024,9.81900952 L20.0670641,10.2634626 L20.0670641,9.81900952 L21.9027268,9.81900952 L22.1733487,10.2634626 L22.1733487,9.81900952 L23.970211,9.81900952 L23.970211,13.6063158 L22.1540186,13.6063158 L21.8063562,13.0266918 L21.8063562,13.6063158 L19.5454305,13.6063158 L19.2942788,12.9880315 L18.7337048,12.9880315 L18.4825531,13.6063158 L17.303975,13.6063158 C16.8401917,13.6063158 16.4922493,13.4903349 16.2605678,13.3744942 L16.2605678,13.6063158 L13.4586783,13.6063158 L13.4586783,12.7367397 C13.4586783,12.6207589 13.4393482,12.6014287 13.3620276,12.6014287 L13.265517,12.6014287 L13.265517,13.6061757 L7.85489946,13.6061757 L7.85489946,13.1230623 L7.66173816,13.6061757 L6.52168026,13.6061757 L6.32851896,13.1423925 L6.32851896,13.6061757 L4.14491378,13.6061757 L3.9130922,12.9878914 L3.35265828,12.9878914 L3.10150657,13.6061757 L1.98063873,13.6061757 L1.98063873,25.0262249 L25.0332285,25.0262249 L25.0332285,18.0890867 C24.7820768,18.2050675 24.4341343,18.263058 24.0863319,18.263058 L22.4051703,18.263058 L22.4051703,18.0310963 C22.212009,18.1858775 21.8640665,18.263058 21.5357343,18.263058 L16.2410976,18.263058 L16.2410976,17.393622 C16.2410976,17.2776412 16.2219075,17.2776412 16.1251167,17.2776412 L16.0286061,17.2776412 L16.0286061,18.263058 L14.289454,18.263058 L14.289454,17.2389809 C13.9997821,17.3741518 13.6711698,17.3741518 13.3813578,17.3741518 L13.1880564,17.3741518 L13.1880564,18.263058 L11.0625817,18.263058 L10.5602783,17.6832939 L9.99998444,18.263058 L6.5795306,18.263058 L6.5795306,14.4758918 L10.0576947,14.4758918 L10.5601382,15.0553757 L11.101242,14.4758918 L13.4393482,14.4758918 C13.70969,14.4758918 14.1542831,14.514412 14.3474444,14.7075733 L14.3474444,14.4758918 L16.4342589,14.4758918 C16.6468904,14.4758918 17.0528233,14.514412 17.323165,14.7075733 L17.323165,14.4758918 L20.4728569,14.4758918 L20.4728569,14.7077134 C20.6468281,14.5530723 20.9754405,14.4760319 21.2651124,14.4760319 L23.0234545,14.4760319 L23.0234545,14.7077134 C23.216896,14.5725425 23.4872378,14.4760319 23.8351802,14.4760319 L25.0332285,14.4760319 L25.0332285,1.87712445 L25.0332285,1.87712445 Z" id="Shape" fill="#0077A6"></path>
                    </g>
                </g>
            </g>
        </g>
    </g>
</svg>