<?xml version="1.0" encoding="UTF-8"?>
<svg width="45px" height="16px" viewBox="0 0 45 16" version="1.1" xmlns="http://www.w3.org/2000/svg" xmlns:xlink="http://www.w3.org/1999/xlink">
    <title>2BD60886-351A-4B54-84CF-A4BED436666C</title>
    <g id="1.0-Experiences" stroke="none" stroke-width="1" fill="none" fill-rule="evenodd">
        <g id="1.3.1-Book-experience---voucher" transform="translate(-1134.000000, -666.000000)" fill-rule="nonzero">
            <g id="Group-5" transform="translate(1074.000000, 574.000000)">
                <g id="Group-3" transform="translate(60.000000, 87.000000)">
                    <g id="visa" transform="translate(0.000000, 5.000000)">
                        <g id="Group" transform="translate(0.003268, 0.183149)" fill="#2566AF">
                            <path d="M19.4789872,14.3221535 L15.8164881,14.3221535 L18.105503,0.254664597 L21.7683785,0.254664597 L19.4789872,14.3221535 Z M12.7353678,0.254664597 L9.2437075,9.93039062 L8.83053334,7.84683386 L8.83090964,7.84758645 L7.59853681,1.52128046 C7.59853681,1.52128046 7.44952318,0.254664597 5.86117333,0.254664597 L0.0887766018,0.254664597 L0.021043133,0.492860629 C0.021043133,0.492860629 1.78625259,0.860126549 3.85212339,2.10077792 L7.03409123,14.3225298 L10.8501196,14.3225298 L16.6770794,0.254664597 L12.7353678,0.254664597 Z M41.5427884,14.3221535 L44.9057551,14.3221535 L41.9736485,0.2542883 L39.0295004,0.2542883 C37.6699392,0.2542883 37.3387978,1.30265188 37.3387978,1.30265188 L31.8764698,14.3221535 L35.6943797,14.3221535 L36.4578864,12.232576 L41.1138098,12.232576 L41.5427884,14.3221535 Z M37.512647,9.3460013 L39.4370301,4.08160558 L40.5196367,9.3460013 L37.512647,9.3460013 Z M32.1628319,3.63757507 L32.6855085,0.616662358 C32.6855085,0.616662358 31.0726993,0.00329816837 29.3914041,0.00329816837 C27.5738893,0.00329816837 23.2577622,0.797661239 23.2577622,4.66035045 C23.2577622,8.29462734 28.3234731,8.33978299 28.3234731,10.2487379 C28.3234731,12.1576928 23.7796862,11.8156388 22.2801425,10.6118646 L21.7356406,13.770502 C21.7356406,13.770502 23.3710276,14.5648651 25.86964,14.5648651 C28.369005,14.5648651 32.1395014,13.2707795 32.1395014,9.74863914 C32.1395014,6.09103183 27.0282586,5.750483 27.0282586,4.16025167 C27.0286349,2.56964404 30.5955547,2.77397334 32.1628319,3.63757507 L32.1628319,3.63757507 Z" id="Shape"></path>
                        </g>
                        <path d="M8.83417718,8.03035965 L7.60180434,1.70405366 C7.60180434,1.70405366 7.45279071,0.437437793 5.86444087,0.437437793 L0.0920441396,0.437437793 L0.0243106708,0.675633825 C0.0243106708,0.675633825 2.79874881,1.25061572 5.45992154,3.40491632 C8.00444219,5.46401377 8.83417718,8.03035965 8.83417718,8.03035965 Z" id="Path" fill="#E6A540"></path>
                    </g>
                </g>
            </g>
        </g>
    </g>
</svg>