<?xml version="1.0" encoding="UTF-8"?>
<svg width="48px" height="16px" viewBox="0 0 48 16" version="1.1" xmlns="http://www.w3.org/2000/svg" xmlns:xlink="http://www.w3.org/1999/xlink">
    <title>A07D3B8B-2A8E-4516-BF02-6777A35F3A25</title>
    <g id="1.0-Experiences" stroke="none" stroke-width="1" fill="none" fill-rule="evenodd">
        <g id="1.3.1-Book-experience---voucher" transform="translate(-1300.000000, -666.000000)" fill-rule="nonzero">
            <g id="Group-5" transform="translate(1074.000000, 574.000000)">
                <g id="Group-3" transform="translate(60.000000, 87.000000)">
                    <g id="Mada-01" transform="translate(166.000000, 5.000000)">
                        <rect id="Rectangle" fill="#84B740" x="0.006" y="9.234" width="20.208" height="6.732"></rect>
                        <rect id="Rectangle" fill="#259BD6" x="0.006" y="0.048" width="20.208" height="6.738"></rect>
                        <path d="M40.422,14.598 L40.332,14.616 C40.02,14.676 39.906,14.7 39.678,14.7 C39.15,14.7 38.526,14.43 38.526,13.158 C38.526,12.504 38.634,11.634 39.618,11.634 L39.624,11.634 C39.792,11.646 39.984,11.664 40.344,11.772 L40.422,11.796 L40.422,14.598 Z M40.584,8.256 L40.422,8.286 L40.422,10.638 L40.278,10.596 L40.236,10.584 C40.074,10.536 39.702,10.428 39.342,10.428 C37.374,10.428 36.96,11.916 36.96,13.164 C36.96,14.874 37.92,15.858 39.594,15.858 C40.302,15.858 40.824,15.786 41.352,15.612 C41.838,15.456 42.012,15.234 42.012,14.76 L42.012,8.01 C41.544,8.094 41.058,8.178 40.584,8.256" id="Shape" fill="#27292D"></path>
                        <path d="M46.272,14.64 L46.188,14.664 L45.888,14.742 C45.606,14.814 45.354,14.856 45.162,14.856 C44.7,14.856 44.424,14.628 44.424,14.238 C44.424,13.986 44.538,13.56 45.294,13.56 L46.272,13.56 L46.272,14.64 Z M45.582,10.398 C44.976,10.398 44.352,10.506 43.578,10.746 L43.074,10.896 L43.242,12.036 L43.734,11.874 C44.25,11.706 44.892,11.598 45.372,11.598 C45.588,11.598 46.248,11.598 46.248,12.312 L46.248,12.624 L45.33,12.624 C43.656,12.624 42.882,13.158 42.882,14.304 C42.882,15.282 43.596,15.87 44.796,15.87 C45.168,15.87 45.684,15.798 46.128,15.69 L46.152,15.684 L46.176,15.69 L46.326,15.714 C46.794,15.798 47.28,15.882 47.754,15.972 L47.754,12.228 C47.754,11.016 47.022,10.398 45.582,10.398" id="Shape" fill="#27292D"></path>
                        <path d="M34.614,14.64 L34.53,14.664 L34.23,14.742 C33.948,14.814 33.702,14.856 33.504,14.856 C33.042,14.856 32.766,14.628 32.766,14.238 C32.766,13.986 32.88,13.56 33.63,13.56 L34.608,13.56 L34.608,14.64 L34.614,14.64 Z M33.93,10.398 C33.318,10.398 32.7,10.506 31.926,10.746 L31.422,10.896 L31.59,12.036 L32.082,11.874 C32.598,11.706 33.24,11.598 33.72,11.598 C33.936,11.598 34.596,11.598 34.596,12.312 L34.596,12.624 L33.678,12.624 C32.004,12.624 31.224,13.158 31.224,14.304 C31.224,15.282 31.938,15.87 33.144,15.87 C33.516,15.87 34.032,15.798 34.476,15.69 L34.5,15.684 L34.524,15.69 L34.668,15.714 C35.142,15.798 35.622,15.882 36.0960366,15.978 L36.0960366,12.234 C36.102,11.01 35.37,10.398 33.93,10.398" id="Shape" fill="#27292D"></path>
                        <path d="M28.296,10.41 C27.534,10.41 26.904,10.662 26.67,10.77 L26.61,10.8 L26.556,10.758 C26.232,10.524 25.758,10.404 25.098,10.404 C24.516,10.404 23.97,10.488 23.376,10.662 C22.866,10.818 22.668,11.064 22.668,11.526 L22.668,15.804 L24.264,15.804 L24.264,11.85 L24.342,11.826 C24.666,11.718 24.858,11.7 25.044,11.7 C25.506,11.7 25.74,11.946 25.74,12.426 L25.74,15.81 L27.312,15.81 L27.312,12.36 C27.312,12.156 27.27,12.036 27.264,12.012 L27.21,11.91 L27.318,11.862 C27.558,11.754 27.822,11.7 28.098,11.7 C28.416,11.7 28.794,11.826 28.794,12.426 L28.794,15.81 L30.36,15.81 L30.36,12.27 C30.36,11.016 29.688,10.41 28.296,10.41" id="Path" fill="#27292D"></path>
                        <path d="M45.096,4.44 C44.862,4.44 44.472,4.416 44.166,4.356 L44.076,4.338 L44.076,2.028 C44.076,1.836 44.04,1.716 44.034,1.698 L43.986,1.602 L44.088,1.56 C44.112,1.548 44.136,1.542 44.166,1.53 L44.184,1.518 C44.22,1.506 44.256,1.494 44.292,1.482 C44.31,1.476 44.322,1.47 44.334,1.47 C44.688,1.374 45.012,1.386 45.156,1.374 L45.162,1.374 C46.14,1.374 46.254,2.244 46.254,2.898 C46.248,4.17 45.618,4.44 45.096,4.44 M45.09,0.048 C45.078,0.048 45.06,0.048 45.048,0.048 C44.13,0.048 43.188,0.3 42.852,0.792 C42.672,1.032 42.57,1.332 42.564,1.686 L42.564,1.686 L42.564,4.068 C42.564,4.272 42.522,4.35 42.516,4.368 L42.462,4.47 L39.564,4.47 L39.564,2.814 L39.558,2.814 C39.522,1.068 38.49,0.108 36.996,0.108 L36.822,0.108 L35.538,0.108 C35.478,0.534 35.43,0.834 35.37,1.26 L36.822,1.26 C37.584,1.26 37.986,1.908 37.986,2.904 L37.986,4.572 L37.884,4.518 C37.866,4.512 37.74,4.47 37.542,4.47 L35.034,4.47 C34.986,4.788 34.926,5.202 34.86,5.616 L42.57,5.616 C42.834,5.562 43.14,5.514 43.404,5.472 C43.794,5.664 44.52,5.766 45.018,5.766 C46.692,5.766 47.778,4.644 47.778,2.916 C47.772,1.206 46.722,0.084 45.09,0.048" id="Shape" fill="#27292D"></path>
                        <path d="M31.572,6.318 L31.644,6.318 C33.318,6.318 34.098,5.766 34.098,4.404 C34.098,3.426 33.384,2.646 32.184,2.646 L30.642,2.646 C30.18,2.646 29.904,2.382 29.904,1.938 C29.904,1.638 30.018,1.266 30.774,1.266 L34.146,1.266 C34.218,0.828 34.254,0.552 34.32,0.114 L30.816,0.114 C29.184,0.114 28.362,0.798 28.362,1.938 C28.362,3.066 29.076,3.654 30.276,3.654 L31.818,3.654 C32.28,3.654 32.556,4.02 32.556,4.404 C32.556,4.656 32.442,5.178 31.692,5.178 L31.434,5.178 L26.496,5.166 L26.496,5.166 L25.596,5.166 C24.834,5.166 24.3,4.734 24.3,3.732 L24.3,3.042 C24.3,1.998 24.714,1.35 25.596,1.35 L27.06,1.35 C27.126,0.906 27.168,0.624 27.228,0.204 L25.404,0.204 L25.23,0.204 C23.736,0.204 22.704,1.206 22.668,2.952 L22.668,2.952 L22.668,3.018 L22.668,3.732 C22.704,5.478 23.736,6.312 25.23,6.312 L25.404,6.312 L26.688,6.312 L29.364,6.318 L29.364,6.318 L30.96,6.318 L31.572,6.318 L31.572,6.318 Z" id="Path" fill="#27292D"></path>
                    </g>
                </g>
            </g>
        </g>
    </g>
</svg>