<?xml version="1.0" encoding="UTF-8"?>
<svg width="58px" height="18px" viewBox="0 0 58 18" version="1.1" xmlns="http://www.w3.org/2000/svg" xmlns:xlink="http://www.w3.org/1999/xlink">
    <title>A0A3B517-BEDC-40C1-8193-7BA318812994</title>
    <defs>
        <polygon id="path-1" points="0 0.04541 13.63667 0.04541 13.63667 16.69991 0 16.69991"></polygon>
        <polygon id="path-3" points="0.07942 0.00113407347 4.8112 0.00113407347 4.8112 6.728 0.07942 6.728"></polygon>
    </defs>
    <g id="1.0-Experiences" stroke="none" stroke-width="1" fill="none" fill-rule="evenodd">
        <g id="1.3.1-Book-experience---voucher" transform="translate(-1367.000000, -665.000000)">
            <g id="Group-5" transform="translate(1074.000000, 574.000000)">
                <g id="Group-3" transform="translate(60.000000, 87.000000)">
                    <g id="paytabs" transform="translate(233.000000, 4.000000)">
                        <path d="M7.8627,4.31529 L5.3077,4.31529 L5.3077,8.60639 L7.8627,8.60639 C10.3836,8.60639 10.4101,4.31529 7.8627,4.31529" id="Fill-1" fill="#257ECE"></path>
                        <g id="Group-5" transform="translate(0.000000, 0.054600)">
                            <mask id="mask-2" fill="white">
                                <use xlink:href="#path-1"></use>
                            </mask>
                            <g id="Clip-4"></g>
                            <path d="M13.23037,0.04541 L0.40947,0.04541 C0.18447,0.04541 -3e-05,0.23841 -3e-05,0.47281 L-3e-05,13.08831 L2.85337,14.59301 L2.85337,4.27521 L1.49397,4.27521 L1.49397,1.88951 L2.85337,1.88951 L5.28007,1.88951 L8.23397,1.88951 C13.59567,1.88951 13.53827,10.92121 8.23397,10.92121 L5.23637,10.92121 L5.23637,15.85771 L6.83797,16.69991 L13.63667,13.08831 L13.63667,0.47281 C13.63667,0.23841 13.45397,0.04541 13.23037,0.04541" id="Fill-3" fill="#257ECE" mask="url(#mask-2)"></path>
                        </g>
                        <path d="M18.55605,6.35157 L19.81345,6.35157 C20.62525,6.35157 21.42765,6.03087 21.42765,5.07107 C21.42765,3.94997 20.81255,3.78887 19.75225,3.78887 L18.76695,3.78887 C18.55605,3.78887 18.55605,3.98697 18.55605,4.19697 L18.55605,6.35157 Z M16.89465,3.99967 C16.89465,3.07477 17.64535,2.32267 18.56865,2.32267 L19.71635,2.32267 C20.44155,2.34827 21.10845,2.31137 21.80865,2.64337 C22.70885,3.07477 23.12745,4.07207 23.12745,5.03417 C23.12745,5.94347 22.80605,6.80737 21.98195,7.31227 C21.32835,7.71857 20.51625,7.82987 19.72685,7.82987 L18.55605,7.82987 L18.55605,10.94747 L16.89465,10.94747 L16.89465,3.99967 Z" id="Fill-6" fill="#257ECE"></path>
                        <path d="M25.50449,9.71354 C25.99779,9.71354 26.49069,9.51714 26.89639,9.27134 L26.89639,7.81824 C26.36849,7.91614 25.82579,7.96534 25.28299,8.07624 C24.85189,8.16224 24.53199,8.39524 24.53199,8.88934 C24.53199,9.49214 24.98699,9.71354 25.50449,9.71354 L25.50449,9.71354 Z M26.95729,10.35314 C26.50329,10.83514 25.85019,11.09394 25.21939,11.09394 C23.93959,11.09394 22.99259,10.23114 22.95449,8.97734 C22.93009,7.79164 23.81739,7.01624 24.81479,6.88174 L26.93269,6.57404 C26.88369,5.94464 25.89729,5.72204 25.46749,5.72204 C24.91419,5.72204 24.23579,5.86974 23.75619,6.10524 L23.58219,6.10524 L23.58219,4.67654 C24.19889,4.50404 24.81479,4.35594 25.49289,4.35594 C26.97089,4.35594 28.41029,4.91104 28.46099,6.53714 L28.46099,10.94694 L26.95729,10.94694 L26.95729,10.35314 Z" id="Fill-8" fill="#257ECE"></path>
                        <path d="M33.70845,4.49156 L35.16255,4.49156 L32.31705,12.33806 C31.83705,13.58286 30.97385,13.90136 29.49575,13.90136 L29.21365,13.90136 L29.21365,12.54806 C30.39435,12.56006 30.78935,12.54806 31.09755,11.69786 L31.39355,10.88276 L28.58405,4.49156 L30.29655,4.49156 L32.13115,8.82696 L33.70845,4.49156 Z" id="Fill-10" fill="#257ECE"></path>
                        <polygon id="Fill-12" fill="#58595B" points="33.71587 3.82691 33.71587 2.32271 40.12347 2.32271 40.12347 3.82691 37.73277 3.82691 37.73277 10.94691 36.07027 10.94691 36.07027 3.82691"></polygon>
                        <path d="M42.12983,9.71354 C42.62213,9.71354 43.11483,9.51714 43.52043,9.27134 L43.52043,7.81824 C42.99323,7.91614 42.44893,7.96534 41.90733,8.07624 C41.47633,8.16224 41.15603,8.39524 41.15603,8.88934 C41.15603,9.49214 41.61233,9.71354 42.12983,9.71354 L42.12983,9.71354 Z M43.58323,10.35314 C43.12783,10.83514 42.47453,11.09394 41.84763,11.09394 C40.56483,11.09394 39.61633,10.23114 39.58093,8.97734 C39.55593,7.79164 40.44263,7.01624 41.44043,6.88174 L43.55893,6.57404 C43.50913,5.94464 42.52323,5.72204 42.09293,5.72204 C41.53853,5.72204 40.86113,5.86974 40.38093,6.10524 L40.20703,6.10524 L40.20703,4.67654 C40.82343,4.50404 41.44043,4.35594 42.11743,4.35594 C43.59583,4.35594 45.03683,4.91104 45.08753,6.53714 L45.08753,10.94694 L43.58323,10.94694 L43.58323,10.35314 Z" id="Fill-14" fill="#58595B"></path>
                        <path d="M48.12876,9.68941 L48.64686,9.68941 C49.06326,9.68941 49.55596,9.61651 49.87656,9.29661 C50.27176,8.88931 50.32136,8.14971 50.32136,7.61961 C50.33276,7.18941 50.25926,6.70691 50.03656,6.33821 C49.76606,5.90821 49.33496,5.77151 48.85586,5.74791 C48.47246,5.74791 48.12876,5.82081 47.75746,5.90821 L47.75746,9.33211 C47.75746,9.53011 47.93146,9.68941 48.12876,9.68941 L48.12876,9.68941 Z M47.74476,11.08261 C46.88426,11.08261 46.19496,10.37981 46.19496,9.51711 L46.19496,1.91771 L47.75746,1.91771 L47.75746,4.67541 C48.16496,4.41661 48.57106,4.35591 49.00146,4.35591 C49.90266,4.35591 50.70266,4.71291 51.25866,5.35321 C51.77416,6.01921 51.91026,6.79491 51.93336,7.61961 C51.93336,8.33541 51.81006,9.07381 51.45516,9.70101 C50.87656,10.66201 49.92666,11.05411 48.79566,11.08261 L47.74476,11.08261 Z" id="Fill-16" fill="#58595B"></path>
                        <g id="Group-20" transform="translate(52.100000, 4.354600)">
                            <mask id="mask-4" fill="white">
                                <use xlink:href="#path-3"></use>
                            </mask>
                            <g id="Clip-19"></g>
                            <path d="M0.14272,6.4061 L0.14272,5.0268 L0.33822,5.0268 C0.84412,5.2363 1.61932,5.3731 2.15122,5.3731 C2.59272,5.3606 3.33242,5.2851 3.33242,4.6834 C3.33242,4.3508 2.85232,4.1894 2.55702,4.0784 C2.00322,3.8681 1.47182,3.7091 0.99152,3.4637 C0.38982,3.1543 0.07942,2.4902 0.07942,1.8499 C0.07942,0.6177 1.22682,-0.0106 2.29802,0.0013 C3.08492,0.0144 3.61612,0.1495 4.27962,0.3453 L4.27962,1.6646 L4.07252,1.6646 C3.62892,1.4921 2.98792,1.3675 2.49512,1.3675 C2.24852,1.3675 1.55832,1.4169 1.55832,1.787 C1.55832,1.9836 1.91552,2.1826 2.18712,2.2689 C2.71702,2.4664 3.34482,2.6373 3.83752,2.8963 C4.56462,3.2542 4.81122,3.9558 4.81122,4.6085 C4.81122,6.0872 3.44452,6.728 2.08722,6.728 C1.39912,6.728 0.78382,6.6037 0.14272,6.4061" id="Fill-18" fill="#58595B" mask="url(#mask-4)"></path>
                        </g>
                    </g>
                </g>
            </g>
        </g>
    </g>
</svg>